<svg width="33" height="32" viewBox="0 0 33 32" fill="none" xmlns="http://www.w3.org/2000/svg">
<path d="M16.5 0.186302C7.661 0.186302 0.5 7.3533 0.5 16.1863C0.5 23.2593 5.084 29.2543 11.437 31.3693C12.24 31.5203 12.53 31.0253 12.53 30.5973C12.53 30.2173 12.521 29.2123 12.515 27.8783C8.062 28.8423 7.124 25.7273 7.124 25.7273C6.395 23.8833 5.343 23.3883 5.343 23.3883C3.895 22.3993 5.458 22.4203 5.458 22.4203C7.062 22.5293 7.906 24.0653 7.906 24.0653C9.33299 26.5133 11.65 25.8053 12.567 25.3933C12.707 24.3623 13.124 23.6533 13.578 23.2583C10.026 22.8573 6.291 21.4823 6.291 15.3513C6.291 13.6003 6.911 12.1743 7.936 11.0543C7.759 10.6533 7.217 9.0233 8.077 6.8193C8.077 6.8193 9.41604 6.3923 12.477 8.46033C13.7809 8.10566 15.1258 7.92379 16.477 7.9193C17.837 7.92829 19.196 8.10627 20.477 8.46033C23.52 6.3923 24.858 6.8193 24.858 6.8193C25.717 9.0233 25.175 10.6523 25.019 11.0543C26.034 12.1743 26.654 13.6013 26.654 15.3513C26.654 21.4963 22.914 22.8513 19.358 23.2423C19.914 23.7213 20.435 24.7063 20.435 26.2013C20.435 28.3413 20.415 30.0653 20.415 30.5863C20.415 31.0023 20.695 31.5023 21.519 31.3413C27.919 29.2483 32.498 23.2483 32.498 16.1853C32.498 7.3523 25.337 0.185303 16.498 0.185303L16.5 0.186302Z" fill="#F0E3CA"/>
</svg>
