<svg width="100" height="100" viewBox="0 0 100 100" fill="none" xmlns="http://www.w3.org/2000/svg">
<path d="M58.238 72.74V64.446C58.238 63.875 57.933 63.346 57.438 63.061L37.226 51.392C36.16 50.776 36.16 49.237 37.226 48.621L57.438 36.952C57.933 36.666 58.238 36.138 58.238 35.567V27.273C58.238 26.042 56.905 25.272 55.839 25.888L16.464 48.621C15.398 49.237 15.398 50.776 16.464 51.392L55.839 74.125C56.905 74.741 58.238 73.971 58.238 72.74Z" fill="#78C878"/>
<path d="M16.4631 51.3919L55.8391 74.1249C56.0321 74.2369 56.2341 74.2889 56.4361 74.3149L18.4641 52.3919C17.3981 51.7759 17.3981 50.2369 18.4641 49.6209L57.8391 26.8879C57.9391 26.8299 58.0441 26.7959 58.1471 26.7619C57.8391 25.8479 56.7461 25.3639 55.8391 25.8879L16.4641 48.6209C15.3971 49.2369 15.3971 50.7759 16.4631 51.3919Z" fill="#78C878"/>
<path d="M58.238 72.74V64.446C58.238 63.875 57.933 63.346 57.438 63.061L37.226 51.392C36.16 50.776 36.16 49.237 37.226 48.621L57.438 36.952C57.933 36.666 58.238 36.138 58.238 35.567V27.273C58.238 26.042 56.905 25.272 55.839 25.888L16.464 48.621C15.398 49.237 15.398 50.776 16.464 51.392L55.839 74.125C56.905 74.741 58.238 73.971 58.238 72.74Z" stroke="#78C878" stroke-miterlimit="10"/>
<path d="M85.3361 72.727V64.433C85.3361 63.862 85.0311 63.333 84.5361 63.048L64.3241 51.379C63.2581 50.763 63.2581 49.224 64.3241 48.608L84.5361 36.939C85.0311 36.653 85.3361 36.125 85.3361 35.554V27.26C85.3361 26.029 84.0031 25.259 82.9371 25.875L43.5621 48.608C42.4961 49.224 42.4961 50.763 43.5621 51.379L82.9371 74.112C84.0031 74.728 85.3361 73.958 85.3361 72.727Z" fill="#78C878"/>
<path d="M43.5621 51.379L82.9371 74.112C83.1301 74.224 83.3321 74.276 83.5341 74.302L45.5621 52.379C44.4961 51.763 44.4961 50.224 45.5621 49.608L84.9371 26.875C85.0371 26.817 85.1421 26.783 85.2451 26.749C84.9371 25.835 83.8441 25.351 82.9371 25.875L43.5621 48.608C42.4951 49.224 42.4951 50.763 43.5621 51.379Z" fill="#78C878"/>
<path d="M85.3361 72.727V64.433C85.3361 63.862 85.0311 63.333 84.5361 63.048L64.3241 51.379C63.2581 50.763 63.2581 49.224 64.3241 48.608L84.5361 36.939C85.0311 36.653 85.3361 36.125 85.3361 35.554V27.26C85.3361 26.029 84.0031 25.259 82.9371 25.875L43.5621 48.608C42.4961 49.224 42.4961 50.763 43.5621 51.379L82.9371 74.112C84.0031 74.728 85.3361 73.958 85.3361 72.727Z" stroke="#78C878" stroke-miterlimit="10"/>
</svg>
