<svg width="100" height="100" viewBox="0 0 100 100" fill="none" xmlns="http://www.w3.org/2000/svg">
<path d="M41.762 27.26V35.554C41.762 36.125 42.067 36.654 42.562 36.939L62.774 48.608C63.84 49.224 63.84 50.763 62.774 51.379L42.562 63.048C42.067 63.334 41.762 63.862 41.762 64.433V72.727C41.762 73.958 43.095 74.728 44.161 74.112L83.536 51.379C84.602 50.763 84.602 49.224 83.536 48.608L44.161 25.875C43.095 25.259 41.762 26.029 41.762 27.26Z" fill="#78C878"/>
<path d="M83.5369 48.6081L44.1609 25.8751C43.9679 25.7631 43.7659 25.7111 43.5639 25.6851L81.5359 47.6081C82.6019 48.2241 82.6019 49.7631 81.5359 50.3791L42.1609 73.1121C42.0609 73.1701 41.9559 73.2041 41.8529 73.2381C42.1609 74.1521 43.2539 74.6361 44.1609 74.1121L83.5359 51.3791C84.6029 50.7631 84.6029 49.2241 83.5369 48.6081Z" fill="#78C878"/>
<path d="M41.762 27.26V35.554C41.762 36.125 42.067 36.654 42.562 36.939L62.774 48.608C63.84 49.224 63.84 50.763 62.774 51.379L42.562 63.048C42.067 63.334 41.762 63.862 41.762 64.433V72.727C41.762 73.958 43.095 74.728 44.161 74.112L83.536 51.379C84.602 50.763 84.602 49.224 83.536 48.608L44.161 25.875C43.095 25.259 41.762 26.029 41.762 27.26Z" stroke="#78C878" stroke-miterlimit="10"/>
<path d="M14.6639 27.273V35.567C14.6639 36.138 14.9689 36.667 15.4639 36.952L35.6759 48.621C36.7419 49.237 36.7419 50.776 35.6759 51.392L15.4639 63.061C14.9689 63.347 14.6639 63.875 14.6639 64.446V72.74C14.6639 73.971 15.9969 74.741 17.0629 74.125L56.4379 51.392C57.5039 50.776 57.5039 49.237 56.4379 48.621L17.0629 25.888C15.9969 25.272 14.6639 26.042 14.6639 27.273Z" fill="#78C878"/>
<path d="M56.4379 48.621L17.0629 25.888C16.8699 25.776 16.6679 25.724 16.4659 25.698L54.4379 47.621C55.5039 48.237 55.5039 49.776 54.4379 50.392L15.0629 73.125C14.9629 73.183 14.8579 73.217 14.7549 73.251C15.0629 74.165 16.1559 74.649 17.0629 74.125L56.4379 51.392C57.5049 50.776 57.5049 49.237 56.4379 48.621Z" fill="#78C878"/>
<path d="M14.6639 27.273V35.567C14.6639 36.138 14.9689 36.667 15.4639 36.952L35.6759 48.621C36.7419 49.237 36.7419 50.776 35.6759 51.392L15.4639 63.061C14.9689 63.347 14.6639 63.875 14.6639 64.446V72.74C14.6639 73.971 15.9969 74.741 17.0629 74.125L56.4379 51.392C57.5039 50.776 57.5039 49.237 56.4379 48.621L17.0629 25.888C15.9969 25.272 14.6639 26.042 14.6639 27.273Z" stroke="#78C878" stroke-miterlimit="10"/>
</svg>
