<svg width="33" height="33" viewBox="0 0 33 33" fill="none" xmlns="http://www.w3.org/2000/svg">
<path d="M27.1667 29.422H5.83335C5.12611 29.422 4.44783 29.141 3.94774 28.641C3.44764 28.1409 3.16669 27.4625 3.16669 26.7553V12.154C3.18885 11.7133 3.31839 11.2846 3.54404 10.9054C3.76968 10.5261 4.08458 10.2078 4.46135 9.97796L15.128 3.57799C15.5423 3.32958 16.0163 3.19836 16.4993 3.19836C16.9824 3.19836 17.4564 3.32958 17.8707 3.57799L28.5374 9.97796C29.3386 10.462 29.8307 11.3287 29.8334 12.2647V26.7553C29.8334 27.4625 29.5524 28.1409 29.0523 28.641C28.5522 29.141 27.874 29.422 27.1667 29.422ZM5.83335 13.246V26.7553H27.1667V13.246L16.5 20.3566L5.83335 13.246ZM16.5 5.86466L7.58802 11.2113L16.5 17.1527L25.4107 11.2113L16.5 5.86466Z" fill="#F0E3CA"/>
</svg>
