<svg width="35" height="29" viewBox="0 0 35 29" fill="none" xmlns="http://www.w3.org/2000/svg">
<path d="M33.6912 1.61127C31.9461 -0.168784 29.1179 -0.168784 27.3729 1.61127L11.5766 17.7226L7.62696 13.6942C5.8819 11.9142 3.05372 11.9142 1.30867 13.6942C-0.436385 15.4743 -0.436385 18.3594 1.30867 20.1384L8.41687 27.3887C10.1619 29.1688 12.9901 29.1688 14.7352 27.3887L33.6911 8.05646C35.4363 6.27641 35.4363 3.39132 33.6912 1.61127ZM32.1124 6.44489C32.1124 6.44489 13.4507 25.4785 13.1565 25.7783C12.2845 26.6678 10.8699 26.6678 9.99676 25.7783C9.99676 25.7783 2.84372 18.4819 2.82181 18.4578C2.01548 17.564 2.03848 16.1723 2.88741 15.3058C3.75939 14.4163 5.17406 14.4163 6.04713 15.3058L11.5755 20.9447L28.9527 3.22284C29.8247 2.33336 31.2393 2.33336 32.1124 3.22284C32.9845 4.11232 32.9845 5.55541 32.1124 6.44489Z" fill="white"/>
</svg>
