<svg width="33" height="33" viewBox="0 0 33 33" fill="none" xmlns="http://www.w3.org/2000/svg">
<path d="M19.1667 25.6156H13.8334C11.0044 25.6156 8.29126 24.4918 6.29089 22.4914C4.2905 20.491 3.16669 17.7778 3.16669 14.9489V8.28223H8.50002V14.9489C8.50002 16.3634 9.06192 17.7199 10.0622 18.7201C11.0623 19.7203 12.4189 20.2822 13.8334 20.2822V8.28223H19.1667V14.2822L19.2067 14.2769C20.668 14.0946 22.0125 13.3847 22.9873 12.2808C23.962 11.1769 24.4999 9.75491 24.5 8.28223H29.8334L29.3774 10.5635C29.1042 11.929 28.5229 13.214 27.6776 14.3206C26.8324 15.4272 25.7455 16.3262 24.5 16.9489C25.7111 17.3524 26.7915 18.0741 27.628 19.0384C28.4645 20.0028 29.0263 21.1743 29.2547 22.4303L29.8334 25.6156H24.5C24.4999 24.1429 23.962 22.7209 22.9873 21.617C22.0125 20.5131 20.668 19.8032 19.2067 19.6209V25.6209L19.1667 25.6156Z" stroke="#F0E3CA" stroke-width="3" stroke-linecap="round" stroke-linejoin="round"/>
</svg>
